# Blender v2.77 (sub 0) OBJ File: 'wall.blend'
# www.blender.org
mtllib wall.mtl
o Cylinder
v 0.000000 0.000000 -30.000000
v 0.000000 8.000000 -30.000000
v 5.852710 0.000000 -29.423557
v 5.852710 8.000000 -29.423557
v 11.480504 0.000000 -27.716385
v 11.480504 8.000000 -27.716385
v 16.667107 0.000000 -24.944088
v 16.667107 8.000000 -24.944088
v 21.213203 0.000000 -21.213203
v 21.213203 8.000000 -21.213203
v 24.944090 0.000000 -16.667105
v 24.944090 8.000000 -16.667105
v 27.716385 0.000000 -11.480503
v 27.716385 8.000000 -11.480503
v 29.423557 0.000000 -5.852711
v 29.423557 8.000000 -5.852711
v 30.000000 0.000000 -0.000002
v 30.000000 8.000000 -0.000002
v 29.423559 0.000000 5.852706
v 29.423559 8.000000 5.852706
v 27.716387 0.000000 11.480498
v 27.716387 8.000000 11.480498
v 24.944090 0.000000 16.667105
v 24.944090 8.000000 16.667105
v 21.213203 0.000000 21.213203
v 21.213203 8.000000 21.213203
v 16.667105 0.000000 24.944090
v 16.667105 8.000000 24.944090
v 11.480498 0.000000 27.716389
v 11.480498 8.000000 27.716389
v 5.852703 0.000000 29.423559
v 5.852703 8.000000 29.423559
v -0.000010 0.000000 30.000000
v -0.000010 8.000000 30.000000
v -5.852722 0.000000 29.423555
v -5.852722 8.000000 29.423555
v -11.480516 0.000000 27.716379
v -11.480516 8.000000 27.716379
v -16.667122 0.000000 24.944078
v -16.667122 8.000000 24.944078
v -21.213217 0.000000 21.213190
v -21.213217 8.000000 21.213190
v -24.944099 0.000000 16.667089
v -24.944099 8.000000 16.667089
v -27.716396 0.000000 11.480480
v -27.716396 8.000000 11.480480
v -29.423563 0.000000 5.852684
v -29.423563 8.000000 5.852684
v -30.000000 0.000000 -0.000029
v -30.000000 8.000000 -0.000029
v -29.423552 0.000000 -5.852741
v -29.423552 8.000000 -5.852741
v -27.716373 0.000000 -11.480534
v -27.716373 8.000000 -11.480534
v -24.944069 0.000000 -16.667137
v -24.944069 8.000000 -16.667137
v -21.213177 0.000000 -21.213230
v -21.213177 8.000000 -21.213230
v -16.667074 0.000000 -24.944111
v -16.667074 8.000000 -24.944111
v -11.480463 0.000000 -27.716404
v -11.480463 8.000000 -27.716404
v -5.852664 0.000000 -29.423567
v -5.852664 8.000000 -29.423567
v 25.253698 8.041037 16.677156
vt 0.9429 0.2647
vt 0.9804 0.3556
vt 0.4987 0.4897
vt 0.4964 0.4902
vt 0.9994 0.4520
vt 0.5010 0.4897
vt 0.9993 0.5503
vt 0.5033 0.4901
vt 0.9800 0.6466
vt 0.5055 0.4910
vt 0.9424 0.7374
vt 0.5075 0.4922
vt 0.8877 0.8192
vt 0.5092 0.4939
vt 0.8182 0.8886
vt 0.5106 0.4958
vt 0.7365 0.9432
vt 0.5116 0.4980
vt 0.6457 0.9808
vt 0.5120 0.5000
vt 0.5494 0.9999
vt 0.5120 0.5021
vt 0.4511 0.9999
vt 0.5115 0.5042
vt 0.3548 0.9808
vt 0.5107 0.5062
vt 0.2640 0.9433
vt 0.5095 0.5080
vt 0.1823 0.8888
vt 0.5079 0.5096
vt 0.1127 0.8195
vt 0.5061 0.5108
vt 0.0579 0.7380
vt 0.5040 0.5117
vt 0.0200 0.6473
vt 0.5018 0.5122
vt 0.0005 0.5508
vt 0.4996 0.5123
vt 0.0001 0.4523
vt 0.4974 0.5119
vt 0.0190 0.3556
vt 0.4953 0.5112
vt 0.0564 0.2642
vt 0.4933 0.5101
vt 0.1109 0.1819
vt 0.4916 0.5086
vt 0.1805 0.1118
vt 0.4902 0.5068
vt 0.2626 0.0566
vt 0.4892 0.5049
vt 0.3541 0.0190
vt 0.4886 0.5027
vt 0.4510 0.0001
vt 0.4885 0.5005
vt 0.5497 0.0005
vt 0.4888 0.4982
vt 0.6464 0.0200
vt 0.4896 0.4961
vt 0.7373 0.0580
vt 0.4908 0.4942
vt 0.8190 0.1130
vt 0.4924 0.4925
vt 0.8884 0.1828
vt 0.4943 0.4912
vn -0.0980 0.0000 0.9952
vn -0.2903 0.0000 0.9569
vn -0.4714 0.0000 0.8819
vn -0.6344 0.0000 0.7730
vn -0.7730 0.0000 0.6344
vn -0.8819 0.0000 0.4714
vn -0.9569 0.0000 0.2903
vn -0.9952 0.0000 0.0980
vn -0.9952 0.0000 -0.0980
vn -0.9569 0.0000 -0.2903
vn -0.8819 0.0000 -0.4714
vn -0.7730 0.0000 -0.6344
vn -0.6344 0.0000 -0.7730
vn -0.4714 0.0000 -0.8819
vn -0.2903 0.0000 -0.9569
vn -0.0980 0.0000 -0.9952
vn 0.0980 0.0000 -0.9952
vn 0.2903 0.0000 -0.9569
vn 0.4714 0.0000 -0.8819
vn 0.6344 0.0000 -0.7730
vn 0.7730 0.0000 -0.6344
vn 0.8819 0.0000 -0.4714
vn 0.9569 0.0000 -0.2903
vn 0.9952 0.0000 -0.0980
vn 0.9952 0.0000 0.0980
vn 0.9569 0.0000 0.2903
vn 0.8819 0.0000 0.4714
vn 0.7730 0.0000 0.6344
vn 0.6344 0.0000 0.7730
vn 0.4714 0.0000 0.8819
vn 0.2903 0.0000 0.9569
vn 0.0980 0.0000 0.9952
usemtl None
s off
f 1/1/1 3/2/1 4/3/1 2/4/1
f 3/2/2 5/5/2 6/6/2 4/3/2
f 5/5/3 7/7/3 8/8/3 6/6/3
f 7/7/4 9/9/4 10/10/4 8/8/4
f 9/9/5 11/11/5 12/12/5 10/10/5
f 11/11/6 13/13/6 14/14/6 12/12/6
f 13/13/7 15/15/7 16/16/7 14/14/7
f 15/15/8 17/17/8 18/18/8 16/16/8
f 17/17/9 19/19/9 20/20/9 18/18/9
f 19/19/10 21/21/10 22/22/10 20/20/10
f 21/21/11 23/23/11 24/24/11 22/22/11
f 23/23/12 25/25/12 26/26/12 24/24/12
f 25/25/13 27/27/13 28/28/13 26/26/13
f 27/27/14 29/29/14 30/30/14 28/28/14
f 29/29/15 31/31/15 32/32/15 30/30/15
f 31/31/16 33/33/16 34/34/16 32/32/16
f 33/33/17 35/35/17 36/36/17 34/34/17
f 35/35/18 37/37/18 38/38/18 36/36/18
f 37/37/19 39/39/19 40/40/19 38/38/19
f 39/39/20 41/41/20 42/42/20 40/40/20
f 41/41/21 43/43/21 44/44/21 42/42/21
f 43/43/22 45/45/22 46/46/22 44/44/22
f 45/45/23 47/47/23 48/48/23 46/46/23
f 47/47/24 49/49/24 50/50/24 48/48/24
f 49/49/25 51/51/25 52/52/25 50/50/25
f 51/51/26 53/53/26 54/54/26 52/52/26
f 53/53/27 55/55/27 56/56/27 54/54/27
f 55/55/28 57/57/28 58/58/28 56/56/28
f 57/57/29 59/59/29 60/60/29 58/58/29
f 59/59/30 61/61/30 62/62/30 60/60/30
f 61/61/31 63/63/31 64/64/31 62/62/31
f 63/63/32 1/1/32 2/4/32 64/64/32
l 22 65
