# Blender v2.77 (sub 0) OBJ File: 'wall.blend'
# www.blender.org
o Cylinder
v -0.038118 0.002040 -7.316515
v -0.038118 11.928156 -7.316515
v 1.385766 0.002040 -7.176275
v 1.385766 11.928156 -7.176275
v 2.754931 0.002040 -6.760943
v 2.754931 11.928156 -6.760943
v 4.016761 0.002040 -6.086481
v 4.016761 11.928156 -6.086481
v 5.122764 0.002040 -5.178808
v 5.122764 11.928156 -5.178808
v 6.030438 0.002040 -4.072804
v 6.030438 11.928156 -4.072804
v 6.704900 0.002040 -2.810975
v 6.704900 11.928156 -2.810975
v 7.120231 0.002040 -1.441810
v 7.120231 11.928156 -1.441810
v 7.260471 0.002040 -0.017927
v 7.260471 11.928156 -0.017927
v 7.120232 0.002040 1.405957
v 7.120232 11.928156 1.405957
v 6.704900 0.002040 2.775122
v 6.704900 11.928156 2.775122
v 6.030438 0.002040 4.036953
v 6.030438 11.928156 4.036953
v 5.122764 0.002040 5.142956
v 5.122764 11.928156 5.142956
v 4.016761 0.002040 6.050629
v 4.016761 11.928156 6.050629
v 2.754930 0.002040 6.725091
v 2.754930 11.928156 6.725091
v 1.385764 0.002040 7.140423
v 1.385764 11.928156 7.140423
v -0.038120 0.002040 7.280663
v -0.038120 11.928156 7.280663
v -1.462005 0.002040 7.140422
v -1.462005 11.928156 7.140422
v -2.831170 0.002040 6.725090
v -2.831170 11.928156 6.725090
v -4.093000 0.002040 6.050627
v -4.093000 11.928156 6.050627
v -5.199003 0.002040 5.142953
v -5.199003 11.928156 5.142953
v -6.106676 0.002040 4.036949
v -6.106676 11.928156 4.036949
v -6.781137 0.002040 2.775118
v -6.781137 11.928156 2.775118
v -7.196467 0.002040 1.405952
v -7.196467 11.928156 1.405952
v -7.336707 0.002040 -0.017933
v -7.336707 11.928156 -0.017933
v -7.196465 0.002040 -1.441818
v -7.196465 11.928156 -1.441818
v -6.781132 0.002040 -2.810983
v -6.781132 11.928156 -2.810983
v -6.106668 0.002040 -4.072812
v -6.106668 11.928156 -4.072812
v -5.198993 0.002040 -5.178815
v -5.198993 11.928156 -5.178815
v -4.092989 0.002040 -6.086487
v -4.092989 11.928156 -6.086487
v -2.831157 0.002040 -6.760948
v -2.831157 11.928156 -6.760948
v -1.461991 0.002040 -7.176277
v -1.461991 11.928156 -7.176277
vt 0.0328 0.5000
vt 0.0714 0.0000
vt 0.0714 0.5000
vt 0.0000 0.5000
vt 0.0328 0.0000
vt 0.7381 0.0000
vt 0.6995 0.5000
vt 0.6995 0.0000
vt 0.7810 0.0000
vt 0.7381 0.5000
vt 0.8265 0.0000
vt 0.7810 0.5000
vt 0.8730 0.0000
vt 0.8265 0.5000
vt 0.9185 0.0000
vt 0.8730 0.5000
vt 0.9614 0.0000
vt 0.9185 0.5000
vt 1.0000 0.0000
vt 0.9614 0.5000
vt 0.6667 0.5000
vt 0.6995 0.0000
vt 0.6995 0.5000
vt 0.6281 0.5000
vt 0.6667 0.0000
vt 0.5852 0.5000
vt 0.6281 0.0000
vt 0.5396 0.5000
vt 0.5852 0.0000
vt 0.4932 0.5000
vt 0.5396 0.0000
vt 0.4477 0.5000
vt 0.4932 0.0000
vt 0.4048 0.5000
vt 0.4477 0.0000
vt 0.3662 0.5000
vt 0.4048 0.0000
vt 0.3005 1.0000
vt 0.3333 0.5000
vt 0.3333 1.0000
vt 0.2619 1.0000
vt 0.3005 0.5000
vt 0.2190 1.0000
vt 0.2619 0.5000
vt 0.1735 1.0000
vt 0.2190 0.5000
vt 0.1270 1.0000
vt 0.1735 0.5000
vt 0.0815 1.0000
vt 0.1270 0.5000
vt 0.0386 1.0000
vt 0.0815 0.5000
vt 0.0000 1.0000
vt 0.0386 0.5000
vt 0.3333 0.5000
vt 0.3662 0.0000
vt 0.3662 0.5000
vt 0.2947 0.5000
vt 0.3333 0.0000
vt 0.2518 0.5000
vt 0.2947 0.0000
vt 0.2063 0.5000
vt 0.2518 0.0000
vt 0.1599 0.5000
vt 0.2063 0.0000
vt 0.1143 0.5000
vt 0.1599 0.0000
vt 0.1143 0.0000
vt 0.0000 0.0000
vt 1.0000 0.5000
vt 0.3662 0.0000
vt 0.0000 0.5000
vn -0.0980 0.0000 0.9952
vn -0.2903 0.0000 0.9569
vn -0.4714 0.0000 0.8819
vn -0.6344 0.0000 0.7730
vn -0.7730 0.0000 0.6344
vn -0.8819 0.0000 0.4714
vn -0.9569 0.0000 0.2903
vn -0.9952 0.0000 0.0980
vn -0.9952 0.0000 -0.0980
vn -0.9569 0.0000 -0.2903
vn -0.8819 0.0000 -0.4714
vn -0.7730 0.0000 -0.6344
vn -0.6344 0.0000 -0.7730
vn -0.4714 0.0000 -0.8819
vn -0.2903 0.0000 -0.9569
vn -0.0980 0.0000 -0.9952
vn 0.0980 0.0000 -0.9952
vn 0.2903 0.0000 -0.9569
vn 0.4714 0.0000 -0.8819
vn 0.6344 0.0000 -0.7730
vn 0.7730 0.0000 -0.6344
vn 0.8819 0.0000 -0.4714
vn 0.9569 0.0000 -0.2903
vn 0.9952 0.0000 -0.0980
vn 0.9952 0.0000 0.0980
vn 0.9569 0.0000 0.2903
vn 0.8819 0.0000 0.4714
vn 0.7730 0.0000 0.6344
vn 0.6344 0.0000 0.7730
vn 0.4714 0.0000 0.8819
vn 0.2903 0.0000 0.9569
vn 0.0980 0.0000 0.9952
s off
f 3/1/1 2/2/1 1/3/1
f 5/4/2 4/5/2 3/1/2
f 7/6/3 6/7/3 5/8/3
f 9/9/4 8/10/4 7/6/4
f 11/11/5 10/12/5 9/9/5
f 13/13/6 12/14/6 11/11/6
f 15/15/7 14/16/7 13/13/7
f 17/17/8 16/18/8 15/15/8
f 19/19/9 18/20/9 17/17/9
f 21/21/10 20/22/10 19/23/10
f 23/24/11 22/25/11 21/21/11
f 25/26/12 24/27/12 23/24/12
f 27/28/13 26/29/13 25/26/13
f 29/30/14 28/31/14 27/28/14
f 31/32/15 30/33/15 29/30/15
f 33/34/16 32/35/16 31/32/16
f 35/36/17 34/37/17 33/34/17
f 37/38/18 36/39/18 35/40/18
f 39/41/19 38/42/19 37/38/19
f 41/43/20 40/44/20 39/41/20
f 43/45/21 42/46/21 41/43/21
f 45/47/22 44/48/22 43/45/22
f 47/49/23 46/50/23 45/47/23
f 49/51/24 48/52/24 47/49/24
f 51/53/25 50/54/25 49/51/25
f 53/55/26 52/56/26 51/57/26
f 55/58/27 54/59/27 53/55/27
f 57/60/28 56/61/28 55/58/28
f 59/62/29 58/63/29 57/60/29
f 61/64/30 60/65/30 59/62/30
f 63/66/31 62/67/31 61/64/31
f 1/3/32 64/68/32 63/66/32
f 3/1/1 4/5/1 2/2/1
f 5/4/2 6/69/2 4/5/2
f 7/6/3 8/10/3 6/7/3
f 9/9/4 10/12/4 8/10/4
f 11/11/5 12/14/5 10/12/5
f 13/13/6 14/16/6 12/14/6
f 15/15/7 16/18/7 14/16/7
f 17/17/8 18/20/8 16/18/8
f 19/19/9 20/70/9 18/20/9
f 21/21/10 22/25/10 20/22/10
f 23/24/11 24/27/11 22/25/11
f 25/26/12 26/29/12 24/27/12
f 27/28/13 28/31/13 26/29/13
f 29/30/14 30/33/14 28/31/14
f 31/32/15 32/35/15 30/33/15
f 33/34/16 34/37/16 32/35/16
f 35/36/17 36/71/17 34/37/17
f 37/38/18 38/42/18 36/39/18
f 39/41/19 40/44/19 38/42/19
f 41/43/20 42/46/20 40/44/20
f 43/45/21 44/48/21 42/46/21
f 45/47/22 46/50/22 44/48/22
f 47/49/23 48/52/23 46/50/23
f 49/51/24 50/54/24 48/52/24
f 51/53/25 52/72/25 50/54/25
f 53/55/26 54/59/26 52/56/26
f 55/58/27 56/61/27 54/59/27
f 57/60/28 58/63/28 56/61/28
f 59/62/29 60/65/29 58/63/29
f 61/64/30 62/67/30 60/65/30
f 63/66/31 64/68/31 62/67/31
f 1/3/32 2/2/32 64/68/32
